<svg width="327" height="232" viewBox="0 0 327 232" fill="none" xmlns="http://www.w3.org/2000/svg">
<path d="M-19.4178 193.334L-32.4785 154.667H-19.4178H-6.35714L6.70355 193.334L-6.35714 232H-19.4178H-32.4785L-19.4178 193.334Z" fill="white" fill-opacity="0.06"/>
<path d="M28.1232 193.334L15.0625 154.667H28.1232H41.1839L54.2446 193.334L41.1839 232H28.1232H15.0625L28.1232 193.334Z" fill="white" fill-opacity="0.06"/>
<path d="M75.6642 193.334L62.6035 154.667H75.6642H88.7249L101.786 193.334L88.7249 232H75.6642H62.6035L75.6642 193.334Z" fill="white" fill-opacity="0.06"/>
<path d="M123.205 193.334L110.145 154.667H123.205H136.266L149.327 193.334L136.266 232H123.205H110.145L123.205 193.334Z" fill="white" fill-opacity="0.06"/>
<path d="M170.746 193.334L157.686 154.667H170.746H183.807L196.868 193.334L183.807 232H170.746H157.686L170.746 193.334Z" fill="white" fill-opacity="0.06"/>
<path d="M218.287 193.334L205.227 154.667H218.287H231.348L244.409 193.334L231.348 232H218.287H205.227L218.287 193.334Z" fill="white" fill-opacity="0.06"/>
<path d="M265.828 193.334L252.768 154.667H265.828H278.889L291.95 193.334L278.889 232H265.828H252.768L265.828 193.334Z" fill="white" fill-opacity="0.06"/>
<path d="M313.369 193.334L300.309 154.667H313.369H326.43L339.491 193.334L326.43 232H313.369H300.309L313.369 193.334Z" fill="white" fill-opacity="0.06"/>
<path d="M4.09194 116L-8.96875 77.333H4.09194H17.1526L30.2133 116L17.1526 154.666H4.09194H-8.96875L4.09194 116Z" fill="white" fill-opacity="0.06"/>
<path d="M51.633 116L38.5723 77.333H51.633H64.6936L77.7543 116L64.6936 154.666H51.633H38.5723L51.633 116Z" fill="white" fill-opacity="0.06"/>
<path d="M99.174 116L86.1133 77.333H99.174H112.235L125.295 116L112.235 154.666H99.174H86.1133L99.174 116Z" fill="white" fill-opacity="0.06"/>
<path d="M146.715 116L133.654 77.333H146.715H159.776L172.836 116L159.776 154.666H146.715H133.654L146.715 116Z" fill="white" fill-opacity="0.06"/>
<path d="M194.256 116L181.195 77.333H194.256H207.317L220.377 116L207.317 154.666H194.256H181.195L194.256 116Z" fill="white" fill-opacity="0.06"/>
<path d="M241.797 116L228.736 77.333H241.797H254.858L267.918 116L254.858 154.666H241.797H228.736L241.797 116Z" fill="white" fill-opacity="0.06"/>
<path d="M289.338 116L276.277 77.333H289.338H302.399L315.459 116L302.399 154.666H289.338H276.277L289.338 116Z" fill="white" fill-opacity="0.06"/>
<path d="M336.879 116L323.818 77.333H336.879H349.94L363 116L349.94 154.666H336.879H323.818L336.879 116Z" fill="white" fill-opacity="0.06"/>
<path d="M-19.9393 38.6667L-33 0H-19.9393H-6.87863L6.18206 38.6667L-6.87863 77.3333H-19.9393H-33L-19.9393 38.6667Z" fill="white" fill-opacity="0.06"/>
<path d="M27.6017 38.6667L14.541 0H27.6017H40.6624L53.7231 38.6667L40.6624 77.3333H27.6017H14.541L27.6017 38.6667Z" fill="white" fill-opacity="0.06"/>
<path d="M75.1427 38.6667L62.082 0H75.1427H88.2034L101.264 38.6667L88.2034 77.3333H75.1427H62.082L75.1427 38.6667Z" fill="white" fill-opacity="0.06"/>
<path d="M122.684 38.6667L109.623 0H122.684H135.744L148.805 38.6667L135.744 77.3333H122.684H109.623L122.684 38.6667Z" fill="white" fill-opacity="0.06"/>
<path d="M170.225 38.6667L157.164 0H170.225H183.285L196.346 38.6667L183.285 77.3333H170.225H157.164L170.225 38.6667Z" fill="white" fill-opacity="0.06"/>
<path d="M217.766 38.6667L204.705 0H217.766H230.826L243.887 38.6667L230.826 77.3333H217.766H204.705L217.766 38.6667Z" fill="white" fill-opacity="0.06"/>
<path d="M265.307 38.6667L252.246 0H265.307H278.367L291.428 38.6667L278.367 77.3333H265.307H252.246L265.307 38.6667Z" fill="white" fill-opacity="0.06"/>
<path d="M312.848 38.6667L299.787 0H312.848H325.908L338.969 38.6667L325.908 77.3333H312.848H299.787L312.848 38.6667Z" fill="white" fill-opacity="0.06"/>
</svg>
