<svg width="20" height="20" viewBox="0 0 20 20" fill="none" xmlns="http://www.w3.org/2000/svg">
<path fill-rule="evenodd" clip-rule="evenodd" d="M9.16713 2.65862C9.22469 2.47609 9.33895 2.31666 9.4933 2.20349C9.64766 2.09031 9.83407 2.0293 10.0255 2.0293C10.2169 2.0293 10.4033 2.09031 10.5576 2.20349C10.712 2.31666 10.8262 2.47609 10.8838 2.65862L12.4338 7.42529H17.4338C17.632 7.41779 17.8273 7.47541 17.9897 7.58932C18.1521 7.70324 18.2728 7.86719 18.3332 8.05614C18.3937 8.24508 18.3906 8.44862 18.3245 8.63567C18.2584 8.82271 18.1329 8.98297 17.9671 9.09196L13.9088 12.0336L15.4588 16.8086C15.5201 16.9905 15.5216 17.1872 15.4632 17.3701C15.4048 17.5529 15.2894 17.7122 15.134 17.8249C14.9786 17.9375 14.7912 17.9975 14.5993 17.996C14.4073 17.9946 14.2209 17.9319 14.0671 17.817L10.0005 14.842L5.94213 17.792C5.78839 17.9069 5.60193 17.9696 5.41 17.971C5.21807 17.9725 5.0307 17.9125 4.87527 17.7999C4.71984 17.6872 4.60449 17.5279 4.54605 17.3451C4.48762 17.1622 4.48916 16.9655 4.55046 16.7836L6.10046 12.0086L2.04213 9.06696C1.87637 8.95797 1.75084 8.79771 1.68473 8.61067C1.61862 8.42362 1.61556 8.22008 1.67603 8.03114C1.73649 7.84219 1.85715 7.67824 2.01956 7.56432C2.18198 7.45041 2.37722 7.39279 2.57546 7.40029H7.57546L9.16713 2.65862Z" fill="#FBAD39"/>
</svg>
